<mxfile host="app.diagrams.net" modified="2023-03-23T10:53:23.836Z" agent="5.0 (Windows NT 10.0; Win64; x64) AppleWebKit/537.36 (KHTML, like Gecko) Chrome/111.0.0.0 Safari/537.36" etag="3tyA73wzzNumKlwhfuvO" version="21.0.10" type="github">
  <diagram name="Сторінка-1" id="f_qQ6oxpq3EO20oxn9xq">
    <mxGraphModel dx="1050" dy="581" grid="1" gridSize="10" guides="1" tooltips="1" connect="1" arrows="1" fold="1" page="1" pageScale="1" pageWidth="827" pageHeight="1169" math="0" shadow="0">
      <root>
        <mxCell id="0" />
        <mxCell id="1" parent="0" />
        <mxCell id="OoO4MrjYJp39DarxOHZu-4" value="" style="rounded=1;whiteSpace=wrap;html=1;fillColor=#f8cecc;strokeColor=#b85450;" vertex="1" parent="1">
          <mxGeometry x="100" y="320" width="640" height="340" as="geometry" />
        </mxCell>
        <mxCell id="OoO4MrjYJp39DarxOHZu-1" value="Промисловий пункт" style="rounded=1;whiteSpace=wrap;html=1;fillColor=#f5f5f5;fontColor=#333333;strokeColor=#666666;" vertex="1" parent="1">
          <mxGeometry x="320" y="540" width="200" height="60" as="geometry" />
        </mxCell>
        <mxCell id="OoO4MrjYJp39DarxOHZu-8" style="edgeStyle=orthogonalEdgeStyle;rounded=0;orthogonalLoop=1;jettySize=auto;html=1;exitX=0.5;exitY=1;exitDx=0;exitDy=0;entryX=0.5;entryY=0;entryDx=0;entryDy=0;" edge="1" parent="1" source="OoO4MrjYJp39DarxOHZu-2" target="OoO4MrjYJp39DarxOHZu-1">
          <mxGeometry relative="1" as="geometry" />
        </mxCell>
        <mxCell id="OoO4MrjYJp39DarxOHZu-2" value="Промисловий центр" style="rounded=1;whiteSpace=wrap;html=1;fillColor=#fff2cc;strokeColor=#d6b656;" vertex="1" parent="1">
          <mxGeometry x="240" y="460" width="360" height="60" as="geometry" />
        </mxCell>
        <mxCell id="OoO4MrjYJp39DarxOHZu-6" style="edgeStyle=orthogonalEdgeStyle;rounded=0;orthogonalLoop=1;jettySize=auto;html=1;exitX=0.5;exitY=1;exitDx=0;exitDy=0;entryX=0.5;entryY=0;entryDx=0;entryDy=0;" edge="1" parent="1" source="OoO4MrjYJp39DarxOHZu-3" target="OoO4MrjYJp39DarxOHZu-2">
          <mxGeometry relative="1" as="geometry" />
        </mxCell>
        <mxCell id="OoO4MrjYJp39DarxOHZu-3" value="Промисловий вузол" style="rounded=1;whiteSpace=wrap;html=1;fillColor=#d5e8d4;strokeColor=#82b366;" vertex="1" parent="1">
          <mxGeometry x="160" y="380" width="520" height="60" as="geometry" />
        </mxCell>
        <mxCell id="OoO4MrjYJp39DarxOHZu-10" value="Промисловий район" style="text;html=1;strokeColor=none;fillColor=none;align=center;verticalAlign=middle;whiteSpace=wrap;rounded=0;fontSize=20;" vertex="1" parent="1">
          <mxGeometry x="317" y="334" width="206" height="30" as="geometry" />
        </mxCell>
        <mxCell id="OoO4MrjYJp39DarxOHZu-11" value="Промисловий район" style="text;html=1;strokeColor=none;fillColor=none;align=center;verticalAlign=middle;whiteSpace=wrap;rounded=0;fontSize=20;" vertex="1" parent="1">
          <mxGeometry x="317" y="614" width="206" height="30" as="geometry" />
        </mxCell>
        <mxCell id="OoO4MrjYJp39DarxOHZu-12" value="Промисловий район" style="text;html=1;strokeColor=none;fillColor=none;align=center;verticalAlign=middle;whiteSpace=wrap;rounded=0;fontSize=20;rotation=-90;" vertex="1" parent="1">
          <mxGeometry x="28" y="475" width="206" height="30" as="geometry" />
        </mxCell>
        <mxCell id="OoO4MrjYJp39DarxOHZu-13" value="Промисловий район" style="text;html=1;strokeColor=none;fillColor=none;align=center;verticalAlign=middle;whiteSpace=wrap;rounded=0;fontSize=20;rotation=90;" vertex="1" parent="1">
          <mxGeometry x="607" y="475" width="206" height="30" as="geometry" />
        </mxCell>
      </root>
    </mxGraphModel>
  </diagram>
</mxfile>
